<?xml version="1.0" encoding="UTF-8"?>
<svg t="1656473779987" class="icon" viewBox="0 0 1024 1024" version="1.1" xmlns="http://www.w3.org/2000/svg"
     p-id="2757" style="margin-right: 3px" width="10" height="10">
  <path
    d="M512 102.4c225.28 0 409.6 184.32 409.6 409.6s-184.32 409.6-409.6 409.6-409.6-184.32-409.6-409.6 184.32-409.6 409.6-409.6m0-102.4C230.4 0 0 230.4 0 512s230.4 512 512 512 512-230.4 512-512S793.6 0 512 0z"
    p-id="2758" fill="#fe0202"></path>
  <path
    d="M512 256c30.72 0 51.2 20.48 51.2 51.2v204.8c0 30.72-20.48 51.2-51.2 51.2s-51.2-20.48-51.2-51.2V307.2c0-30.72 20.48-51.2 51.2-51.2z"
    p-id="2759" fill="#fe0202"></path>
  <path d="M512 716.8m-51.2 0a51.2 51.2 0 1 0 102.4 0 51.2 51.2 0 1 0-102.4 0Z" p-id="2760"
        fill="#fe0202"></path>
</svg>
